<svg width="480" height="480" viewBox="0 0 480 480" fill="none" xmlns="http://www.w3.org/2000/svg">
<path d="M0 40C0 17.9086 17.9086 0 40 0H440C462.091 0 480 17.9086 480 40V440C480 462.091 462.091 480 440 480H40C17.9086 480 0 462.091 0 440V40Z" fill="#F21211"/>
<path d="M69.3686 432.493C61.0172 432.493 53.8468 429.537 47.8575 423.626C41.9525 417.629 39 410.451 39 402.09C39 393.814 41.9525 386.719 47.8575 380.808C53.8468 374.896 61.0172 371.94 69.3686 371.94C77.4668 371.94 84.5528 374.896 90.6265 380.808C96.7002 386.719 99.7371 393.814 99.7371 402.09C99.7371 407.664 98.303 412.773 95.4349 417.418C92.6511 421.979 88.9816 425.653 84.4263 428.44C79.871 431.142 74.8518 432.493 69.3686 432.493Z" fill="white"/>
<path d="M301.5 281.217L256.357 293.145C255.513 288.922 253.699 285.122 250.916 281.744C248.132 278.281 244.462 275.536 239.907 273.509C235.436 271.398 230.079 270.342 223.837 270.342C215.486 270.342 208.442 272.116 202.705 275.663C196.969 279.125 194.101 283.77 194.101 289.598C194.101 294.243 195.957 298.17 199.669 301.379C203.38 304.588 209.749 307.164 218.775 309.107L253.952 316.201C272.848 320.085 286.936 326.335 296.215 334.949C305.495 343.564 310.134 354.88 310.134 368.9C310.134 381.652 306.38 392.842 298.873 402.47C291.449 412.098 281.242 419.614 268.251 425.019C255.344 430.34 240.455 433 223.584 433C197.855 433 177.356 427.637 162.088 416.912C146.903 406.102 138.004 391.407 135.389 372.827L188.407 370.04C190.01 377.894 193.89 383.89 200.048 388.028C206.206 392.082 214.094 394.109 223.71 394.109C233.158 394.109 240.751 392.293 246.487 388.662C252.307 384.946 255.26 380.174 255.344 374.347C255.26 369.449 253.193 365.437 249.144 362.312C245.095 359.103 238.853 356.654 230.417 354.965L196.758 348.251C177.778 344.45 163.648 337.863 154.369 328.489C145.174 319.114 140.576 307.164 140.576 292.638C140.576 280.139 143.951 269.371 150.699 260.335C157.532 251.298 167.107 244.331 179.423 239.432C191.823 234.534 206.333 232.085 222.951 232.085C247.499 232.085 266.817 237.279 280.905 247.666C295.077 258.054 299.138 263.313 301.5 281.217Z" fill="white"/>
<path d="M447.457 234.618V275.156H330.412V234.618H447.457ZM356.984 188H410.888V369.406C410.888 374.389 411.647 378.274 413.166 381.061C414.684 383.764 416.793 385.664 419.493 386.762C422.276 387.86 425.482 388.408 429.109 388.408C431.64 388.408 434.171 388.197 436.702 387.775C439.232 387.268 441.172 386.888 442.522 386.635L451 426.793C448.301 427.637 444.505 428.608 439.612 429.706C434.719 430.889 428.772 431.607 421.77 431.86C408.779 432.367 397.391 430.635 387.606 426.666C377.905 422.697 370.355 416.532 364.956 408.171C359.557 399.81 356.9 389.253 356.984 376.501V188Z" fill="white"/>
</svg>
